# xmcd
#
# Track frame offsets: 
#        150
#        15032
#        25547
#        38255
#        48453
#        55172
#        68281
#        80557
#        98417
#        111635
#        120920
#        135432
#        148526
#
# Disc length: 2113 seconds
#
# Revision: 0
# Processed by: cddbd v1.5.2PL0 Copyright (c) Steve Scherf et al.
# Submitted via: ExactAudioCopy v0.99pb5
#
DISCID=8c083f0d
DTITLE=Kåre Virud - Barbeinte engel
DYEAR=1974
DGENRE=Blues
TTITLE0=Showet er over
TTITLE1=Ola Tung's Kafe
TTITLE2=Mjuke liner
TTITLE3=Ola E God
TTITLE4=Hei Marianne
TTITLE5=Oslo blues
TTITLE6=Vi digga rokkenroll
TTITLE7=Ville bare se byen din
TTITLE8=Mamma, jeg har tenkt på deg
TTITLE9=Sommerferie blues
TTITLE10=Gravskrift 
TTITLE11=Riksvei 
TTITLE12=Barbeinte engel
EXTD=
EXTT0=
EXTT1=
EXTT2=
EXTT3=
EXTT4=
EXTT5=
EXTT6=
EXTT7=
EXTT8=
EXTT9=
EXTT10=
EXTT11=
EXTT12=
PLAYORDER=
